<?xml version="1.0" encoding="UTF-8" standalone="no"?>
<!-- Created with Inkscape (http://www.inkscape.org/) -->

<svg
   xmlns:dc="http://purl.org/dc/elements/1.1/"
   xmlns:cc="http://creativecommons.org/ns#"
   xmlns:rdf="http://www.w3.org/1999/02/22-rdf-syntax-ns#"
   xmlns:svg="http://www.w3.org/2000/svg"
   xmlns="http://www.w3.org/2000/svg"
   xmlns:xlink="http://www.w3.org/1999/xlink"
   version="1.1"
   width="860"
   height="631"
   id="svg2">
  <metadata
     id="metadata8">
    <rdf:RDF>
      <cc:Work
         rdf:about="">
        <dc:format>image/svg+xml</dc:format>
        <dc:type
           rdf:resource="http://purl.org/dc/dcmitype/StillImage" />
        <dc:title></dc:title>
      </cc:Work>
    </rdf:RDF>
  </metadata>
  <defs
     id="defs6">
    <linearGradient
       id="linearGradient3834">
      <stop
         id="stop3836"
         style="stop-color:#7eceff;stop-opacity:1"
         offset="0" />
      <stop
         id="stop3838"
         style="stop-color:#3e5f88;stop-opacity:1"
         offset="1" />
    </linearGradient>
    <linearGradient
       id="linearGradient3823">
      <stop
         id="stop3825"
         style="stop-color:#8ed3ff;stop-opacity:1"
         offset="0" />
      <stop
         id="stop3827"
         style="stop-color:#3e5f8a;stop-opacity:1"
         offset="1" />
    </linearGradient>
    <linearGradient
       x1="1129.7297"
       y1="278.97296"
       x2="1129.7297"
       y2="630.8703"
       id="linearGradient3840"
       xlink:href="#linearGradient3834"
       gradientUnits="userSpaceOnUse"
       gradientTransform="translate(-862,0)" />
  </defs>
  <rect
     width="860"
     height="351"
     x="0"
     y="280"
     id="rect3821"
     style="fill:url(#linearGradient3840);fill-opacity:1;fill-rule:evenodd;stroke:none" />
  <path
     d="m 392.94034,56.232975 c 20.27605,2.500437 51.54332,20.400206 63.51724,34.079701 1.2091,11.276244 5.62185,13.081444 8.93825,20.980174 -8.18256,48.94556 16.01512,75.90357 18.62084,79.80615 21.91868,50.02218 59.6078,108.30145 94.43401,120.12894 9.69262,11.57087 21.28561,18.40714 29.06839,20.64002 13.7962,10.37421 33.34921,32.1117 40.23077,55.70121 2.8273,26.75553 16.68192,31.74425 19.04516,31.6153 15.90201,18.0943 43.30839,27.20301 48.79714,33.88825 4.24845,3.64153 7.14257,13.9666 7.97051,21.95716 1.5545,11.82863 5.20821,20.43441 13.43666,27.60445 2.34634,9.70184 2.16824,14.58893 11.93984,22.06067 20.08211,24.92004 12.12165,24.88338 4.4836,34.84981 l -150.44179,2.90283 c -59.78182,5.25633 -102.54863,28.78433 -144.09986,31.50978 -19.62537,-1.29795 -34.2855,-6.8764 -49.30465,-20.17812 -14.03905,-4.53505 -37.45817,-32.35565 -111.22478,-33.65279 -197.42893,-9.86437 -130.49719,7.92429 -164.08623,9.11987 -26.74246,1.03048 -34.653435,-12.04226 -47.712175,-15.94495 l -0.352787,-8.976 c 3.224749,-1.25243 6.016097,-1.05176 6.496263,-2.93261 2.343636,-2.04589 0.490431,-3.67916 4.649568,-5.86963 0.770444,-10.65197 -1.134518,-13.06895 2.673621,-25.30237 -0.202454,-16.78932 6.92223,-10.06979 13.78535,-32.56249 1.27069,-2.62309 3.18695,-5.53155 8.12449,-8.3262 3.30928,-9.3672 7.49406,-12.62925 21.47119,-18.54008 20.44193,-16.6945 1.32903,-29.73918 25.36772,-58.05158 15.53685,-10.92425 20.1004,-23.8797 43.27725,-39.12709 l 1.63245,5.78941 c 10.49164,-5.39498 31.37786,-20.90005 55.30785,-24.16323 1.27673,-31.59595 11.07194,-25.22779 11.0625,-34.70097 2.2993,-10.83602 9.99681,-13.55963 10.52921,-32.07945 8.82935,-7.48036 5.66539,-14.44092 10.84365,-20.39695 8.34448,-0.77669 3.21606,-6.68841 31.54701,-40.55398 10.38211,-11.49687 16.28432,-26.78868 27.36299,-62.29849 1.38921,-5.3137 3.98696,-10.95402 8.93785,-16.57083 1.21978,-6.38888 2.34399,-9.909447 6.05931,-16.017733 9.00287,-17.741171 2.91446,-15.195667 17.61159,-36.388182 z"
     id="path3761"
     style="opacity:0.42523367;fill:#ffffff;fill-opacity:1;stroke:#000000;stroke-width:1px;stroke-linecap:butt;stroke-linejoin:miter;stroke-opacity:1" />
  <text
     x="335.38223"
     y="230.02318"
     id="text2987"
     xml:space="preserve"
     style="font-size:28px;font-style:normal;font-variant:normal;font-weight:normal;font-stretch:normal;text-align:start;line-height:100%;letter-spacing:0px;word-spacing:0px;text-anchor:start;fill:#000000;fill-opacity:1;stroke:none;font-family:DejaVu Serif;-inkscape-font-specification:DejaVu Serif"><tspan
       x="335.38223"
       y="230.02318"
       id="tspan2989"
       style="font-size:36px">Content</tspan></text>
  <path
     d="M 7.1525574e-7,278.5 859.99999,278.5"
     id="path2991"
     style="fill:none;stroke:#2c76a3;stroke-width:4.00000143;stroke-linecap:butt;stroke-linejoin:miter;stroke-miterlimit:4;stroke-opacity:1;stroke-dasharray:none" />
  <text
     x="319.22867"
     y="434.63507"
     id="text3763"
     xml:space="preserve"
     style="font-size:28px;font-style:normal;font-variant:normal;font-weight:normal;font-stretch:normal;text-align:start;line-height:100%;letter-spacing:0px;word-spacing:0px;text-anchor:start;fill:#000000;fill-opacity:1;stroke:none;font-family:DejaVu Serif;-inkscape-font-specification:DejaVu Serif"><tspan
       x="319.22867"
       y="434.63507"
       id="tspan3765"
       style="font-size:36px">Semantic</tspan></text>
  <path
     d="M 434.07686,47.719786 C 550.16311,55.076732 583.78619,202.06685 581.58857,269.97235"
     style="fill:none;stroke:#fab478;stroke-width:2;stroke-linecap:butt;stroke-linejoin:miter;stroke-miterlimit:4;stroke-opacity:1;stroke-dasharray:none" />
  <text
     x="332.49799"
     y="-386.08963"
     transform="matrix(0.5,0.8660254,-0.8660254,0.5,0,0)"
     id="text3769"
     xml:space="preserve"
     style="font-size:20px;font-style:normal;font-variant:normal;font-weight:normal;font-stretch:normal;text-align:end;line-height:100%;letter-spacing:0px;word-spacing:0px;text-anchor:end;fill:#000000;fill-opacity:1;stroke:none;font-family:DejaVu Sans;-inkscape-font-specification:DejaVu Sans"><tspan
       x="332.49799"
       y="-386.08963"
       id="tspan3771"
       style="font-size:18px;text-align:start;text-anchor:start;fill:#000000;fill-opacity:1">WYSIWYG</tspan></text>
  <text
     x="337.48648"
     y="-480.5593"
     transform="matrix(0.391224,0.92029549,-0.92029549,0.391224,0,0)"
     id="text3773"
     xml:space="preserve"
     style="font-size:20px;font-style:normal;font-variant:normal;font-weight:normal;font-stretch:normal;text-align:end;line-height:100%;letter-spacing:0px;word-spacing:0px;text-anchor:end;fill:#000000;fill-opacity:1;stroke:#000000;stroke-width:1;stroke-opacity:1;font-family:DejaVu Sans;-inkscape-font-specification:DejaVu Sans"><tspan
       x="337.48648"
       y="-480.5593"
       id="tspan3775"
       style="font-size:18px;text-align:start;text-anchor:start;stroke:#000000;stroke-width:1;stroke-opacity:1">WYSIWYM</tspan></text>
  <path
     d="m 521.64002,67.214415 c 88.34322,5.665299 136.9813,159.212165 132.41537,319.819975"
     id="path3767"
     style="fill:none;stroke:#afaac8;stroke-width:2;stroke-linecap:butt;stroke-linejoin:miter;stroke-miterlimit:4;stroke-opacity:1;stroke-dasharray:none" />
  <path
     d="M 527.59579,25.58592 C 729.27942,24.146296 829.94033,305.93404 790.52645,531.1628"
     id="path3805"
     style="fill:none;stroke:#afc896;stroke-width:2;stroke-linecap:butt;stroke-linejoin:miter;stroke-miterlimit:4;stroke-opacity:1;stroke-dasharray:none" />
  <text
     x="422.30203"
     y="-527.37665"
     transform="matrix(0.5,0.8660254,-0.8660254,0.5,0,0)"
     id="text3807"
     xml:space="preserve"
     style="font-size:20px;font-style:normal;font-variant:normal;font-weight:normal;font-stretch:normal;text-align:end;line-height:100%;letter-spacing:0px;word-spacing:0px;text-anchor:end;fill:#000000;fill-opacity:1;stroke:none;font-family:DejaVu Sans;-inkscape-font-specification:DejaVu Sans"><tspan
       x="422.30203"
       y="-527.37665"
       id="tspan3809"
       style="font-size:18px;text-align:start;text-anchor:start">Source Code View</tspan></text>
  <text
     x="627.65582"
     y="-432.70016"
     transform="matrix(0.5,0.8660254,-0.8660254,0.5,0,0)"
     id="text3811"
     xml:space="preserve"
     style="font-size:20px;font-style:normal;font-variant:normal;font-weight:normal;font-stretch:normal;text-align:end;line-height:100%;letter-spacing:0px;word-spacing:0px;text-anchor:end;fill:#000000;fill-opacity:1;stroke:none;font-family:DejaVu Sans;-inkscape-font-specification:DejaVu Sans"><tspan
       x="627.65582"
       y="-432.70016"
       id="tspan3813"
       style="font-size:18px;text-align:start;text-anchor:start">Fact View</tspan></text>
  <path
     d="m 675.62134,287.70539 c 80.24002,61.96852 91.58995,165.06658 89.93661,233.61582"
     id="path3815"
     style="fill:none;stroke:#000000;stroke-width:2;stroke-linecap:butt;stroke-linejoin:miter;stroke-miterlimit:4;stroke-opacity:1;stroke-dasharray:none" />
</svg>
